<svg id="visual" viewBox="0 0 1024 720" width="1024" height="720" xmlns="http://www.w3.org/2000/svg" xmlns:xlink="http://www.w3.org/1999/xlink" version="1.1"><rect x="0" y="0" width="1024" height="720" fill="#FFFFFF"></rect><defs><linearGradient id="grad1_0" x1="29.7%" y1="100%" x2="100%" y2="0%"><stop offset="21.555555555555557%" stop-color="#ff0066" stop-opacity="1"></stop><stop offset="78.44444444444446%" stop-color="#ff0066" stop-opacity="1"></stop></linearGradient></defs><defs><linearGradient id="grad1_1" x1="29.7%" y1="100%" x2="100%" y2="0%"><stop offset="21.555555555555557%" stop-color="#ff0066" stop-opacity="1"></stop><stop offset="78.44444444444446%" stop-color="#ff6a89" stop-opacity="1"></stop></linearGradient></defs><defs><linearGradient id="grad1_2" x1="29.7%" y1="100%" x2="100%" y2="0%"><stop offset="21.555555555555557%" stop-color="#ffa0af" stop-opacity="1"></stop><stop offset="78.44444444444446%" stop-color="#ff6a89" stop-opacity="1"></stop></linearGradient></defs><defs><linearGradient id="grad1_3" x1="29.7%" y1="100%" x2="100%" y2="0%"><stop offset="21.555555555555557%" stop-color="#ffa0af" stop-opacity="1"></stop><stop offset="78.44444444444446%" stop-color="#ffd0d6" stop-opacity="1"></stop></linearGradient></defs><defs><linearGradient id="grad1_4" x1="29.7%" y1="100%" x2="100%" y2="0%"><stop offset="21.555555555555557%" stop-color="#ffffff" stop-opacity="1"></stop><stop offset="78.44444444444446%" stop-color="#ffd0d6" stop-opacity="1"></stop></linearGradient></defs><defs><linearGradient id="grad2_0" x1="0%" y1="100%" x2="70.3%" y2="0%"><stop offset="21.555555555555557%" stop-color="#ff0066" stop-opacity="1"></stop><stop offset="78.44444444444446%" stop-color="#ff0066" stop-opacity="1"></stop></linearGradient></defs><defs><linearGradient id="grad2_1" x1="0%" y1="100%" x2="70.3%" y2="0%"><stop offset="21.555555555555557%" stop-color="#ff6a89" stop-opacity="1"></stop><stop offset="78.44444444444446%" stop-color="#ff0066" stop-opacity="1"></stop></linearGradient></defs><defs><linearGradient id="grad2_2" x1="0%" y1="100%" x2="70.3%" y2="0%"><stop offset="21.555555555555557%" stop-color="#ff6a89" stop-opacity="1"></stop><stop offset="78.44444444444446%" stop-color="#ffa0af" stop-opacity="1"></stop></linearGradient></defs><defs><linearGradient id="grad2_3" x1="0%" y1="100%" x2="70.3%" y2="0%"><stop offset="21.555555555555557%" stop-color="#ffd0d6" stop-opacity="1"></stop><stop offset="78.44444444444446%" stop-color="#ffa0af" stop-opacity="1"></stop></linearGradient></defs><defs><linearGradient id="grad2_4" x1="0%" y1="100%" x2="70.3%" y2="0%"><stop offset="21.555555555555557%" stop-color="#ffd0d6" stop-opacity="1"></stop><stop offset="78.44444444444446%" stop-color="#ffffff" stop-opacity="1"></stop></linearGradient></defs><g transform="translate(1024, 720)"><path d="M-281.7 0C-273 -35.6 -264.4 -71.2 -250.4 -103.7C-236.4 -136.2 -217 -165.6 -193 -193C-169.1 -220.4 -140.7 -245.8 -107.8 -260.2C-74.9 -274.6 -37.4 -278.1 0 -281.7L0 0Z" fill="#ffe8ea"></path><path d="M-225.3 0C-218.4 -28.5 -211.5 -57 -200.3 -83C-189.1 -109 -173.6 -132.5 -154.4 -154.4C-135.3 -176.3 -112.6 -196.6 -86.2 -208.2C-59.9 -219.7 -29.9 -222.5 0 -225.3L0 0Z" fill="#ffb8c2"></path><path d="M-169 0C-163.8 -21.4 -158.6 -42.7 -150.2 -62.2C-141.8 -81.7 -130.2 -99.4 -115.8 -115.8C-101.5 -132.3 -84.4 -147.5 -64.7 -156.1C-44.9 -164.8 -22.5 -166.9 0 -169L0 0Z" fill="#ff869c"></path><path d="M-112.7 0C-109.2 -14.2 -105.8 -28.5 -100.1 -41.5C-94.5 -54.5 -86.8 -66.3 -77.2 -77.2C-67.7 -88.2 -56.3 -98.3 -43.1 -104.1C-29.9 -109.9 -15 -111.3 0 -112.7L0 0Z" fill="#ff4877"></path><path d="M-56.3 0C-54.6 -7.1 -52.9 -14.2 -50.1 -20.7C-47.3 -27.2 -43.4 -33.1 -38.6 -38.6C-33.8 -44.1 -28.1 -49.2 -21.6 -52C-15 -54.9 -7.5 -55.6 0 -56.3L0 0Z" fill="#ff0066"></path></g><g transform="translate(0, 0)"><path d="M281.7 0C277.6 36.9 273.6 73.8 260.2 107.8C246.8 141.8 224.1 172.9 196.6 196.6C169.1 220.3 136.9 236.5 103.3 249.4C69.8 262.4 34.9 272 0 281.7L0 0Z" fill="#ffe8ea"></path><path d="M225.3 0C222.1 29.5 218.9 59 208.2 86.2C197.5 113.4 179.2 138.3 157.3 157.3C135.3 176.2 109.5 189.2 82.7 199.6C55.8 209.9 27.9 217.6 0 225.3L0 0Z" fill="#ffb8c2"></path><path d="M169 0C166.6 22.1 164.2 44.3 156.1 64.7C148.1 85.1 134.4 103.7 117.9 117.9C101.5 132.2 82.1 141.9 62 149.7C41.9 157.4 20.9 163.2 0 169L0 0Z" fill="#ff869c"></path><path d="M112.7 0C111.1 14.8 109.4 29.5 104.1 43.1C98.7 56.7 89.6 69.2 78.6 78.6C67.6 88.1 54.8 94.6 41.3 99.8C27.9 105 14 108.8 0 112.7L0 0Z" fill="#ff4877"></path><path d="M56.3 0C55.5 7.4 54.7 14.8 52 21.6C49.4 28.4 44.8 34.6 39.3 39.3C33.8 44.1 27.4 47.3 20.7 49.9C14 52.5 7 54.4 0 56.3L0 0Z" fill="#ff0066"></path></g></svg>